<svg width="22" height="23" viewBox="0 0 22 23" fill="none" xmlns="http://www.w3.org/2000/svg">
<path d="M11 7.27539C10.2181 7.27539 9.45385 7.50724 8.80376 7.94161C8.15367 8.37599 7.64699 8.99338 7.34779 9.71572C7.04859 10.4381 6.9703 11.2329 7.12283 11.9997C7.27537 12.7666 7.65186 13.4709 8.20472 14.0238C8.75757 14.5767 9.46195 14.9531 10.2288 15.1057C10.9956 15.2582 11.7905 15.1799 12.5128 14.8807C13.2351 14.5815 13.8525 14.0748 14.2869 13.4248C14.7213 12.7747 14.9531 12.0104 14.9531 11.2285C14.9519 10.1804 14.5351 9.17565 13.794 8.43455C13.0529 7.69345 12.0481 7.27658 11 7.27539ZM11 13.1191C10.6261 13.1191 10.2605 13.0083 9.94963 12.8005C9.63871 12.5928 9.39639 12.2975 9.25329 11.952C9.11019 11.6066 9.07275 11.2264 9.1457 10.8597C9.21865 10.4929 9.39872 10.1561 9.66313 9.89164C9.92754 9.62723 10.2644 9.44717 10.6312 9.37422C10.9979 9.30127 11.378 9.33871 11.7235 9.48181C12.069 9.6249 12.3643 9.86723 12.572 10.1781C12.7797 10.4891 12.8906 10.8546 12.8906 11.2285C12.8901 11.7298 12.6907 12.2103 12.3362 12.5648C11.9818 12.9192 11.5013 13.1186 11 13.1191ZM15.125 1.94727H6.875C5.50795 1.94882 4.19734 2.49256 3.23069 3.45921C2.26404 4.42586 1.7203 5.73647 1.71875 7.10352V15.3535C1.7203 16.7206 2.26404 18.0312 3.23069 18.9978C4.19734 19.9645 5.50795 20.5082 6.875 20.5098H15.125C16.492 20.5082 17.8027 19.9645 18.7693 18.9978C19.736 18.0312 20.2797 16.7206 20.2812 15.3535V7.10352C20.2797 5.73647 19.736 4.42586 18.7693 3.45921C17.8027 2.49256 16.492 1.94882 15.125 1.94727ZM18.2188 15.3535C18.2178 16.1737 17.8916 16.9601 17.3116 17.5401C16.7316 18.1201 15.9452 18.4463 15.125 18.4473H6.875C6.05477 18.4463 5.2684 18.1201 4.68841 17.5401C4.10842 16.9601 3.78217 16.1737 3.78125 15.3535V7.10352C3.78217 6.28329 4.10842 5.49691 4.68841 4.91692C5.2684 4.33693 6.05477 4.01069 6.875 4.00977H15.125C15.9452 4.01069 16.7316 4.33693 17.3116 4.91692C17.8916 5.49691 18.2178 6.28329 18.2188 7.10352V15.3535ZM16.8438 6.75977C16.8438 7.03171 16.7631 7.29756 16.612 7.52367C16.4609 7.74979 16.2462 7.92603 15.9949 8.0301C15.7437 8.13417 15.4672 8.1614 15.2005 8.10835C14.9338 8.05529 14.6888 7.92433 14.4965 7.73204C14.3042 7.53974 14.1732 7.29474 14.1202 7.02801C14.0671 6.76129 14.0943 6.48482 14.1984 6.23358C14.3025 5.98233 14.4787 5.76758 14.7048 5.6165C14.931 5.46541 15.1968 5.38477 15.4688 5.38477C15.8333 5.38518 16.1828 5.53018 16.4406 5.78795C16.6983 6.04573 16.8433 6.39522 16.8438 6.75977Z" fill="white"/>
</svg>
