<svg width="108" height="104" viewBox="0 0 108 104" fill="none" xmlns="http://www.w3.org/2000/svg">
<path d="M35.5735 21.2885C39.2097 22.3355 43.0161 23.6428 46.733 25.2231C47.015 25.3542 47.3249 25.4531 47.6021 25.6027C48.5586 26.1033 49.2638 26.8158 49.6107 27.8507C49.8115 28.4541 49.9705 29.0664 50.0878 29.6879C50.8011 33.3794 50.9118 37.1142 50.4622 40.8045C50.0508 44.2679 49.0699 47.645 47.4787 50.7874C46.1356 53.4214 44.0735 55.3198 41.3892 56.5663C38.3659 57.9826 35.3245 59.3153 32.0271 59.9518C31.7164 60.0104 31.4148 60.1109 31.1131 60.2112C30.4728 60.4026 29.9935 60.8125 29.7032 61.4087C29.2491 62.3376 28.8505 63.2807 28.4334 64.2191C28.3022 64.5011 28.2403 64.8204 28.16 65.1351C27.0948 69.6145 25.5346 73.9477 24.3075 78.366C23.6233 80.8134 23.0548 83.2707 22.4631 85.7417C22.3071 86.3525 22.2436 86.9869 22.1987 87.626C22.1683 88.1309 22.4349 88.5539 22.911 88.774C23.9187 89.2286 24.9216 89.7016 25.962 90.1053C27.9735 90.8754 29.8774 91.8348 31.6596 93.0392C32.4492 93.5761 33.2107 94.1451 33.8652 94.8249C35.8194 96.8224 35.1187 98.8713 32.5432 99.6922C31.0999 100.171 29.5932 100.358 28.0924 100.29C24.6786 100.148 21.284 99.8527 18.0278 98.7844C16.1545 98.1679 14.3002 97.4774 12.4506 96.7685C10.4576 96.0031 8.47885 95.1823 6.49062 94.3985C5.3069 93.9384 4.20747 93.3027 3.17815 92.5469C2.46738 92.0105 1.9287 91.3406 1.61334 90.4912C1.4031 89.9249 1.49846 89.3972 1.87615 88.9219C2.28181 88.4143 2.80246 88.0741 3.37389 87.7666C5.47845 86.6283 7.74044 86.4174 10.0607 86.596C11.8808 86.7257 13.6868 86.911 15.4974 87.0777C15.8078 87.0978 16.1319 87.1411 16.4469 87.1428C16.8777 87.1542 17.231 86.929 17.3905 86.536C17.7706 85.5882 18.1369 84.6171 18.5032 83.646C18.6159 83.3593 18.6962 83.0447 18.7396 82.7206C19.6036 77.7166 21.4671 72.968 22.6135 68.0164C22.931 66.6188 23.3178 65.2587 23.6909 63.8753C24.0261 62.64 24.1113 61.3802 24.1594 60.111C24.2068 58.9993 23.8776 58.1266 22.9964 57.4087C22.1289 56.7139 21.3453 55.9223 20.5802 55.1355C19.1284 53.6409 17.9786 51.9671 17.1034 50.0677C16.3655 48.4795 15.7344 46.8593 15.2565 45.1797C14.4144 42.2242 14.4064 39.2451 15.0332 36.2507C15.5126 33.9876 16.4083 31.8702 17.3733 29.7902C18.0011 28.4128 18.6797 27.068 19.3399 25.7185C20.1733 23.9992 21.3115 22.4761 22.5328 21.0137C23.0736 20.3631 23.747 20.0422 24.572 19.9769C27.112 19.7582 29.6371 19.7525 32.1357 20.3907C33.1489 20.6692 34.2409 20.9481 35.5735 21.2885ZM42.3819 35.389C44.0661 35.8192 45.7078 36.416 47.2699 37.1698C47.6212 37.3384 48.0004 37.4747 48.3611 37.6062C48.6108 37.7094 49.0337 37.4429 49.0861 37.1605C49.105 37.0865 49.1424 37.0172 49.1429 36.9384C49.2813 34.3122 49.072 31.7351 48.5662 29.1612C48.4666 28.702 48.0697 28.4035 47.4999 28.396C45.1091 28.4162 42.7802 28.1172 40.4478 27.6003C40.0544 27.5195 39.6606 27.5175 39.2625 27.4553C36.6288 26.96 34.0234 26.3537 31.4799 25.4281C29.029 24.5261 26.625 23.5178 24.3895 22.1582C24.3202 22.1208 24.2509 22.0833 24.1768 22.0644C23.8531 21.9423 23.5657 21.9872 23.3097 22.2176C23.1841 22.3235 23.0769 22.4341 22.9883 22.5495C21.3881 24.7235 20.2175 27.1453 19.1348 29.6092C18.8019 30.372 19.1099 30.8646 19.9018 30.9289C21.2356 31.033 22.5883 31.063 23.9169 31.2644C26.8011 31.7053 29.7088 32.0537 32.5497 32.8187C33.0864 32.9557 33.6326 33.0558 34.1883 33.1189C35.9245 33.3454 37.5993 33.8126 39.2551 34.3539C40.2959 34.6788 41.3273 35.0408 42.3819 35.389ZM20.0662 97.9052C21.5476 98.1259 23.339 98.4454 25.145 98.6306C26.9509 98.8159 28.771 98.9456 30.5936 98.6027C31.215 98.4854 31.8274 98.3264 32.4169 98.1024C33.3825 97.7181 33.6051 96.7695 32.9373 95.9877C32.3155 95.2572 31.5725 94.6928 30.7597 94.1698C28.4278 92.6475 25.8619 91.5781 23.3145 90.5135C22.7088 90.2602 22.3371 90.4807 22.0787 91.1836C21.9845 91.475 21.9042 91.7897 21.8053 92.0996C21.6221 92.5851 21.2685 92.8891 20.7676 92.9978C18.8568 93.3772 17.1588 92.9238 15.7294 91.5729C15.3789 91.2468 15.2936 90.7321 15.4952 90.2513C15.6827 89.826 15.9119 89.3917 16.0994 88.9664C16.1837 88.7908 16.0002 88.4285 15.8104 88.3997C15.5095 88.3426 15.1997 88.2437 14.8893 88.2236C12.9117 88.0931 10.934 87.9626 8.96072 87.8923C7.51548 87.8386 6.11983 88.0539 4.75055 88.552C4.23071 88.7346 3.74277 89.024 3.27807 89.2997C2.88307 89.5339 2.83808 90.1731 3.1141 90.559C3.63385 91.303 4.33084 91.8161 5.12589 92.1769C6.92864 92.9922 8.73138 93.8075 10.581 94.5165C13.0918 95.493 15.6262 96.3769 18.1512 97.2978C18.6922 97.4952 19.2242 97.6507 20.0662 97.9052ZM27.0149 59.8151C26.6817 59.73 26.4596 59.6733 26.219 59.6119C25.9229 59.5362 25.5972 59.8079 25.5353 60.1273C25.516 60.2801 25.455 60.4419 25.4727 60.6042C25.5332 62.3743 25.0845 64.0538 24.6311 65.7518C23.8472 68.6667 23.068 71.563 22.2656 74.4731C22.0911 75.0792 21.9489 75.7132 21.7236 76.2865C21.0902 77.84 20.6974 79.455 20.2862 81.0652C19.9931 82.2127 19.7 83.3602 19.4022 84.5262C18.9673 86.229 18.4308 87.8663 17.4273 89.3253C17.2965 89.5285 17.2028 89.7411 17.0905 89.949C16.9267 90.2818 17.0444 90.8245 17.3259 91.0344C18.1981 91.7106 19.1653 91.9379 20.2231 91.656C20.4133 91.606 20.6322 91.3662 20.6795 91.1811C20.7741 90.811 20.7808 90.3987 20.7828 90.0049C20.8148 88.2584 20.9256 86.5123 21.3188 84.8186C21.8494 82.5094 22.4403 80.1959 23.0265 77.9008C24.0665 73.829 25.5829 69.8986 26.5442 65.8264C26.8991 64.3596 27.3281 62.9116 28.0622 61.581C28.1745 61.3731 28.2359 61.1325 28.2371 60.8962C28.2289 60.697 28.1238 60.4138 27.9761 60.2972C27.6623 60.0593 27.2783 59.9416 27.0149 59.8151ZM34.0702 37.2093C34.0607 37.2463 34.0513 37.2833 34.0418 37.3203C36.7349 37.9687 39.4233 38.6357 42.1074 39.2423C43.9539 39.6548 45.8434 39.8219 47.7439 39.637C47.8041 39.6327 47.925 39.5453 47.916 39.5035C47.8935 39.3598 47.8758 39.1976 47.7837 39.0952C47.6317 38.9183 47.4379 38.7505 47.2253 38.6568C45.903 38.1219 44.6133 37.5362 43.2674 37.0939C41.0149 36.3411 38.7388 35.6809 36.4674 35.0022C35.9354 34.8466 35.3892 34.7465 34.8477 34.628C33.686 34.3904 32.5102 34.2084 31.3627 33.9153C27.4389 32.9131 23.4336 32.4619 19.4421 32.0339C19.3448 32.0287 19.1495 32.176 19.1491 32.2548C19.153 32.3938 19.2448 32.5749 19.3649 32.645C19.7807 32.8695 20.1918 33.1126 20.6498 33.2492C23.5225 34.121 26.301 35.2841 29.2395 35.9755C30.8545 36.3682 32.46 36.798 34.0702 37.2093ZM35.1406 22.5974C33.3453 22.1389 32.0497 21.808 30.7356 21.4723C29.5881 21.1792 28.3886 21.0898 27.2115 21.144C27.054 21.1432 26.9008 21.2026 26.7662 21.2668C26.7197 21.2944 26.6775 21.3822 26.6818 21.4424C26.6629 21.5165 26.6763 21.6185 26.7224 21.6697C26.8976 21.8327 27.0449 22.0281 27.2575 22.1218C30.1325 23.4476 33.0592 24.6485 36.1552 25.3407C38.3951 25.8339 40.6586 26.2346 42.9083 26.6121C43.7601 26.7508 44.645 26.7599 45.5019 26.8013C45.5806 26.8017 45.6968 26.7328 45.7015 26.7143C45.6744 26.5891 45.6614 26.4083 45.5783 26.3477C44.9369 25.8487 44.1969 25.5808 43.4475 25.35C42.5363 25.0581 41.6109 24.8218 40.7371 24.4606C38.7678 23.6027 36.6854 23.1103 35.1406 22.5974ZM47.7395 45.0577C47.8585 44.4374 47.9959 43.822 48.0964 43.197C48.1062 43.0812 48.005 42.9371 47.9409 42.8024C47.8247 42.8713 47.616 42.9166 47.5691 43.0229C47.1516 44.04 46.7108 45.071 46.3674 46.107C45.9581 47.3234 45.3642 48.4138 44.7285 49.5133C43.9337 50.9269 42.8577 52.0519 41.4636 52.8788C40.9107 53.191 40.3715 53.5265 39.8324 53.862C39.4327 54.1148 39.0329 54.3675 38.6332 54.6203C38.5123 54.7077 38.3634 54.8274 38.3118 54.9523C38.2417 55.0724 38.213 55.2622 38.2819 55.3784C38.337 55.4713 38.5634 55.5883 38.6516 55.5517C39.9327 55.0902 41.0071 54.2803 42.1503 53.5865C43.405 52.8423 44.3738 51.828 45.1584 50.6088C46.2836 48.905 47.2427 47.0798 47.7395 45.0577ZM17.3212 35.4747C17.1956 35.5806 17.0377 35.6586 16.9861 35.7834C16.0534 37.8914 15.9496 40.073 16.3042 42.3126C16.6856 44.7561 17.4939 47.0721 18.6271 49.274C18.7739 49.5481 18.9393 49.8269 19.1094 50.0872C19.1921 50.2266 19.298 50.3522 19.4134 50.4409C19.5335 50.511 19.7186 50.5582 19.83 50.5078C19.9415 50.4574 20.0537 50.2495 20.0218 50.1428C19.9218 49.7624 19.7801 49.391 19.5919 49.0472C18.6134 47.3975 18.0343 45.5738 17.5339 43.7504C17.1383 42.289 16.9466 40.8008 17.1165 39.2867C17.2568 38.1199 17.4388 36.944 17.5839 35.7587C17.6028 35.6846 17.5477 35.5917 17.5016 35.5405C17.4555 35.4893 17.3768 35.4889 17.3212 35.4747ZM27.5864 58.581C28.6181 58.8642 29.4006 58.9655 30.148 58.6635C30.278 58.6179 30.3993 58.4517 30.4139 58.3174C30.419 58.2201 30.258 58.0016 30.1792 58.0012C28.5717 57.9652 27.1009 57.4713 25.7011 56.6997C25.5624 56.6248 25.3958 56.5823 25.2568 56.5862C25.1178 56.5901 24.9091 56.6354 24.8669 56.7232C24.8201 56.8295 24.8606 57.0568 24.9343 57.1544C25.7829 57.9232 26.7815 58.336 27.5864 58.581Z" fill="#531AF4"/>
<path d="M25.8628 25.8073C25.8249 25.9554 25.8379 26.1361 25.7493 26.2515C25.0408 27.0957 24.3185 27.9167 23.6009 28.7192C23.4332 28.913 23.1693 28.8653 22.9429 28.7483C22.6657 28.5987 22.5704 28.1997 22.7201 27.9225C23.2998 26.8877 24.0596 25.9974 25.1465 25.4469C25.2627 25.378 25.471 25.4115 25.5958 25.4631C25.6974 25.5285 25.7753 25.6864 25.8628 25.8073Z" fill="#531AF4"/>
<path d="M24.9168 97.0541C24.7231 96.8864 24.5612 96.8253 24.4785 96.6859C24.3911 96.565 24.3364 96.3933 24.3695 96.2637C24.4026 96.1342 24.5286 95.9495 24.6539 95.9223C25.0296 95.8409 25.41 95.7409 25.799 95.7614C27.0682 95.8095 28.3009 95.7695 29.4941 95.2659C29.7123 95.1836 29.9899 95.2545 30.0348 95.542C30.0615 95.746 30.0599 96.061 29.9296 96.1854C29.6641 96.4528 29.3384 96.7245 28.9856 96.871C27.6391 97.434 26.2317 97.2322 24.9168 97.0541Z" fill="#531AF4"/>
<path d="M64.7366 5.7071C61.2349 7.14138 57.5923 8.85284 54.0682 10.8259C53.8021 10.9868 53.5047 11.1186 53.2453 11.2974C52.3486 11.8985 51.7245 12.6831 51.4917 13.7495C51.3573 14.371 51.2655 14.997 51.2161 15.6274C50.9064 19.3745 51.2004 23.0994 52.0466 26.7193C52.8303 30.1179 54.1708 33.3691 56.0926 36.3209C57.7128 38.7942 59.9681 40.4583 62.7715 41.4071C65.9303 42.488 69.0981 43.4838 72.4449 43.7599C72.7601 43.7845 73.0708 43.8517 73.3816 43.9189C74.0389 44.0398 74.5597 44.3955 74.9128 44.9568C75.4648 45.8311 75.9631 46.7256 76.4792 47.6133C76.6401 47.8794 76.7362 48.1902 76.8501 48.4943C78.3937 52.8322 80.4135 56.9712 82.1114 61.2308C83.0564 63.5899 83.8873 65.9712 84.7429 68.3637C84.9641 68.9541 85.0958 69.5778 85.2096 70.2084C85.2944 70.707 85.0752 71.1563 84.6257 71.4267C83.6731 71.9876 82.7272 72.5663 81.7366 73.0803C79.8202 74.0634 78.0313 75.2232 76.3898 76.6133C75.663 77.2324 74.9675 77.8806 74.3904 78.6271C72.6637 80.8243 73.582 82.7854 76.2312 83.3228C77.7179 83.643 79.236 83.6658 80.7206 83.436C84.099 82.925 87.4416 82.2643 90.5632 80.85C92.3588 80.0345 94.1275 79.1475 95.8896 78.2425C97.788 77.2661 99.6664 76.236 101.558 75.2417C102.685 74.6562 103.709 73.9053 104.651 73.0426C105.299 72.4325 105.762 71.7082 105.984 70.8296C106.132 70.2439 105.98 69.7296 105.553 69.298C105.095 68.8373 104.54 68.5554 103.939 68.3115C101.724 67.4076 99.4522 67.4427 97.1649 67.8712C95.3695 68.1971 93.5942 68.5766 91.8122 68.9383C91.5059 68.9918 91.1884 69.07 90.8753 69.1057C90.4483 69.1637 90.0727 68.978 89.8716 68.6046C89.3912 67.7034 88.922 66.7776 88.4528 65.8519C88.3098 65.5791 88.1959 65.275 88.1177 64.9575C86.7174 60.0764 84.3511 55.5572 82.6758 50.7587C82.2089 49.4037 81.6772 48.0934 81.1567 46.7585C80.6898 45.5667 80.4689 44.3235 80.2837 43.067C80.1163 41.9669 80.3491 41.0638 81.1475 40.2547C81.9348 39.4701 82.6281 38.5984 83.3036 37.7334C84.5852 36.0905 85.5471 34.3022 86.2118 32.3193C86.7735 30.6605 87.2256 28.9816 87.519 27.2601C88.0364 24.2309 87.7221 21.2684 86.775 18.3594C86.0535 16.1614 84.934 14.1533 83.7497 12.19C82.9765 10.8885 82.1564 9.62506 81.3542 8.3549C80.3396 6.73589 79.0433 5.34486 77.6709 4.0231C77.063 3.43491 76.3588 3.18875 75.5316 3.21309C72.9828 3.27043 70.472 3.53795 68.0571 4.44268C67.0799 4.82917 66.0245 5.22457 64.7366 5.7071ZM59.4936 20.4615C57.8658 21.0713 56.2983 21.8422 54.8269 22.7606C54.4959 22.9662 54.1337 23.1427 53.7893 23.3125C53.5523 23.4422 53.103 23.2229 53.0203 22.9479C52.9935 22.8763 52.9488 22.8115 52.9399 22.7332C52.5182 20.1374 52.4474 17.5528 52.6718 14.9393C52.7211 14.472 53.0834 14.1323 53.6491 14.0632C56.028 13.8247 58.3109 13.2754 60.5737 12.5092C60.9561 12.3864 61.3473 12.3418 61.7364 12.2368C64.301 11.4596 66.8255 10.575 69.2539 9.37959C71.5929 8.21772 73.8737 6.95524 75.949 5.36178C76.0139 5.31709 76.0787 5.27238 76.1503 5.24558C76.4588 5.08917 76.7495 5.10268 77.0289 5.30399C77.1652 5.39569 77.2837 5.4941 77.3843 5.59921C79.2103 7.58737 80.636 9.86828 81.979 12.2006C82.3924 12.9229 82.1395 13.446 81.3592 13.5955C80.0445 13.8433 78.703 14.0195 77.4039 14.3634C74.5844 15.1137 71.7314 15.7746 68.99 16.8425C68.4713 17.0368 67.9391 17.1954 67.3935 17.3182C65.692 17.7313 64.0776 18.3769 62.49 19.0941C61.4905 19.5298 60.5043 20.0012 59.4936 20.4615ZM88.4417 80.1965C86.9928 80.5761 85.2465 81.0876 83.4712 81.4671C81.6958 81.8466 79.9005 82.1725 78.0515 82.0289C77.4211 81.9795 76.7951 81.8876 76.1848 81.7287C75.1832 81.4511 74.8593 80.5321 75.4387 79.6827C75.9777 78.8892 76.6553 78.2478 77.4067 77.6399C79.5603 75.8743 81.9955 74.5336 84.4127 73.1996C84.9874 72.8823 85.3809 73.0613 85.7138 73.7321C85.8389 74.0116 85.9529 74.3157 86.0847 74.6131C86.3193 75.076 86.7037 75.3399 87.2135 75.3937C89.1541 75.5643 90.7931 74.9298 92.0679 73.4322C92.381 73.0701 92.4103 72.5492 92.1578 72.093C91.9254 71.6905 91.6505 71.2835 91.4181 70.881C91.3153 70.7155 91.4585 70.3355 91.6441 70.2864C91.937 70.197 92.2344 70.0652 92.5407 70.0117C94.4926 69.6679 96.4445 69.3242 98.3987 69.0409C99.8296 68.8312 101.24 68.8942 102.656 69.2412C103.192 69.3666 103.708 69.6015 104.2 69.8252C104.618 70.0154 104.732 70.6459 104.499 71.0595C104.063 71.8553 103.426 72.4408 102.675 72.8855C100.971 73.8911 99.2666 74.8966 97.5046 75.8016C95.1142 77.0439 92.6902 78.1968 90.2797 79.3855C89.7632 79.6402 89.2511 79.8524 88.4417 80.1965ZM77.4129 43.0817C77.7349 42.9611 77.9496 42.8807 78.1821 42.7936C78.4684 42.6863 78.8215 42.9212 78.9176 43.232C78.9533 43.3818 79.0315 43.5361 79.0315 43.6993C79.1628 45.4656 79.7906 47.0867 80.425 48.7257C81.5197 51.5386 82.6076 54.3337 83.7202 57.1399C83.9592 57.7235 84.1692 58.3384 84.4552 58.884C85.2529 60.3599 85.8181 61.9228 86.4011 63.4791C86.8166 64.5882 87.2321 65.6972 87.6543 66.8242C88.2709 68.4699 88.9814 70.0396 90.1369 71.3814C90.2888 71.5693 90.405 71.7705 90.5391 71.9651C90.738 72.2782 90.6797 72.8304 90.4225 73.0695C89.6286 73.8362 88.6917 74.1667 87.6096 74.001C87.4151 73.9718 87.1715 73.7571 87.1045 73.5782C86.9704 73.2205 86.9191 72.8113 86.8746 72.4201C86.6537 70.6873 86.3547 68.9634 85.7806 67.3222C85.0033 65.0839 84.1655 62.8479 83.3345 60.6298C81.8601 56.6944 79.9274 52.9511 78.5312 49.0068C78.0197 47.587 77.4366 46.1939 76.5628 44.9506C76.4287 44.756 76.3416 44.5235 76.3148 44.2887C76.3015 44.0897 76.3753 43.7969 76.5095 43.665C76.7958 43.3945 77.1647 43.2359 77.4129 43.0817ZM67.9534 21.3718C67.9668 21.4076 67.9802 21.4434 67.9937 21.4791C65.3865 22.4151 62.786 23.369 60.1833 24.2625C58.3923 24.8723 56.532 25.2429 54.6226 25.2646C54.5623 25.2668 54.4326 25.193 54.4371 25.1506C54.4439 25.0052 54.4439 24.842 54.5244 24.7303C54.6564 24.538 54.8309 24.3503 55.0321 24.2341C56.2888 23.5593 57.5075 22.8375 58.7977 22.2521C60.9556 21.2601 63.1469 20.3575 65.3315 19.4371C65.8435 19.2249 66.3757 19.0663 66.9012 18.8898C68.0304 18.5279 69.1796 18.2198 70.2887 17.8043C74.081 16.3835 78.014 15.5016 81.9358 14.6443C82.0319 14.6286 82.242 14.7539 82.2509 14.8322C82.2621 14.9708 82.1904 15.1608 82.0786 15.2435C81.6895 15.5117 81.3071 15.7977 80.8666 15.9832C78.1051 17.1606 75.4687 18.6174 72.6223 19.6227C71.0593 20.1878 69.5097 20.7888 67.9534 21.3718ZM65.3085 6.96153C67.0437 6.31146 68.2958 5.84233 69.5659 5.36651C70.675 4.951 71.8578 4.73226 73.0338 4.65885C73.1903 4.64101 73.349 4.68354 73.4898 4.73277C73.539 4.75514 73.5905 4.83787 73.5927 4.89823C73.6195 4.96978 73.6172 5.07265 73.577 5.12853C73.4204 5.30958 73.2951 5.5197 73.0939 5.63589C70.3791 7.26493 67.5996 8.77543 64.5967 9.79848C62.4233 10.5311 60.2164 11.1744 58.0207 11.793C57.1889 12.023 56.3102 12.1278 55.4628 12.2617C55.3846 12.2706 55.2617 12.2147 55.255 12.1968C55.2684 12.0694 55.2617 11.8883 55.3378 11.819C55.9215 11.2535 56.6281 10.9072 57.3481 10.5967C58.2224 10.2079 59.1168 9.87283 59.9464 9.41922C61.8114 8.35334 63.8282 7.63851 65.3085 6.96153ZM55.2135 30.653C55.0281 30.0493 54.8248 29.4523 54.6573 28.8419C54.635 28.7278 54.72 28.5736 54.7693 28.4327C54.8922 28.4887 55.1046 28.5111 55.1627 28.6117C55.6878 29.5777 56.2375 30.5549 56.691 31.5478C57.2295 32.7128 57.9379 33.7325 58.6888 34.7567C59.6319 36.0761 60.8232 37.0781 62.2986 37.7493C62.8821 37.9998 63.4543 38.275 64.0266 38.5502C64.4513 38.7582 64.8761 38.9663 65.3008 39.1744C65.4305 39.2482 65.5914 39.3511 65.6562 39.4696C65.7389 39.5814 65.788 39.767 65.7321 39.8899C65.6874 39.9883 65.4749 40.1291 65.3832 40.1022C64.0598 39.7821 62.9041 39.0931 61.6925 38.5271C60.3646 37.923 59.2918 37.0194 58.3799 35.8923C57.077 34.3202 55.9261 32.6095 55.2135 30.653ZM84.4164 17.8355C84.5528 17.9272 84.7182 17.9876 84.783 18.1061C85.9383 20.1008 86.2775 22.2584 86.1672 24.5232C86.0524 26.9936 85.4994 29.3835 84.6111 31.695C84.4948 31.9834 84.3605 32.2785 84.2196 32.5557C84.1525 32.7032 84.0608 32.8395 83.9557 32.9401C83.8438 33.0228 83.665 33.0898 83.5487 33.0518C83.4325 33.0137 83.2984 32.8192 83.3186 32.7096C83.3768 32.3206 83.4775 31.9361 83.6275 31.574C84.4217 29.8281 84.8001 27.9524 85.1003 26.0856C85.3355 24.59 85.365 23.0898 85.0323 21.6029C84.7666 20.4581 84.4585 19.3088 84.1861 18.1462C84.1592 18.0746 84.204 17.9763 84.2442 17.9204C84.2845 17.8645 84.3628 17.8556 84.4164 17.8355ZM76.7113 41.9167C75.7162 42.3099 74.9493 42.4952 74.1736 42.2759C74.0395 42.2445 73.9009 42.0925 73.8718 41.9605C73.8562 41.8644 73.9927 41.6297 74.0709 41.6207C75.6651 41.4111 77.0738 40.7609 78.382 39.8424C78.5117 39.753 78.6727 39.6927 78.8114 39.6816C78.95 39.6704 79.1624 39.6929 79.2138 39.7756C79.2719 39.8762 79.2561 40.1065 79.1935 40.2116C78.4331 41.0676 77.4849 41.586 76.7113 41.9167Z" fill="#531AF4"/>
<path d="M74.8793 9.14916C74.9329 9.29227 74.9396 9.47337 75.0402 9.57848C75.8359 10.3411 76.6427 11.0792 77.4429 11.7993C77.6306 11.9738 77.8878 11.8978 78.1002 11.757C78.3596 11.5783 78.4112 11.1714 78.2324 10.912C77.5441 9.94591 76.6925 9.14302 75.5524 8.7134C75.4294 8.65747 75.226 8.71331 75.1074 8.77811C75.0135 8.85409 74.9531 9.01951 74.8793 9.14916Z" fill="#531AF4"/>
<path d="M83.5273 79.8756C83.7017 79.6878 83.856 79.6096 83.9231 79.4621C83.9969 79.3324 84.0327 79.1558 83.9858 79.0306C83.9389 78.9054 83.7936 78.7355 83.6662 78.722C83.2839 78.6816 82.8949 78.6234 82.5104 78.6859C81.2538 78.8711 80.0241 78.9646 78.7834 78.5931C78.5576 78.5349 78.2893 78.6354 78.2758 78.926C78.2712 79.1317 78.3069 79.4447 78.4499 79.5543C78.7428 79.7914 79.0959 80.0263 79.4625 80.1337C80.862 80.5478 82.2394 80.1949 83.5273 79.8756Z" fill="#531AF4"/>
</svg>
