<svg width="196" height="25" viewBox="0 0 196 25" fill="none" xmlns="http://www.w3.org/2000/svg">
<path d="M186.052 24.3801C180.508 24.3801 176.851 19.6281 176.851 12.5001C176.851 5.37212 180.508 0.620117 186.052 0.620117C191.572 0.620117 195.253 5.37212 195.253 12.5001C195.253 19.6281 191.572 24.3801 186.052 24.3801ZM180.484 12.4768C180.484 19.4185 182.697 24.0307 186.028 24.0307C189.383 24.0307 191.619 19.4185 191.619 12.4768C191.619 5.55847 189.383 0.946233 186.028 0.946233C182.697 0.946233 180.484 5.55847 180.484 12.4768Z" fill="#F45624"/>
<path d="M169.801 24.3801C163.325 24.3801 159.994 18.6032 159.994 12.1973C159.994 5.55847 164.001 0.620117 170.616 0.620117C173.016 0.620117 175.415 1.78482 176.277 3.08929L173.994 5.8147C172.154 3.64835 169.498 2.20412 166.866 2.20412C163.675 2.20412 161.834 5.37212 161.834 9.82129C161.834 15.738 164.7 20.9326 170.011 20.9326C173.947 20.9326 175.089 18.5799 175.089 18.5799L176.952 21.5615C176.952 21.5615 174.669 24.3801 169.801 24.3801Z" fill="#F45624"/>
<path d="M142.137 16.3204C142.137 13.362 144.583 11.8945 147.751 11.8945C150.849 11.8945 152.619 13.5251 154.786 13.5251C155.321 13.5251 155.81 13.3154 155.81 12.7796C155.81 11.4053 151.827 10.6832 149.335 10.0775C146.05 9.28553 142.696 8.65659 142.696 5.20906C142.696 3.78812 144 0.620117 150.709 0.620117C153.108 0.620117 157.115 1.01612 158.559 2.18082L157.604 5.67494C156.253 4.69659 153.155 3.90459 150.173 3.90459C146.772 3.90459 145.328 4.71988 145.328 6.35047C145.328 10.7764 157.511 9.16906 157.511 13.8046C157.511 15.5516 156.043 16.6465 154.413 16.6931C150.965 16.8095 148.613 14.5733 145.561 14.5733C143.465 14.5733 142.556 15.2954 142.556 16.5067C142.556 19.9309 147.611 21.0025 152.829 21.0025C154.786 21.0025 156.742 20.8394 158.326 19.5116L156.929 23.5648C155.694 24.1472 154.506 24.3801 152.922 24.3801C147.308 24.3801 142.137 22.2604 142.137 16.3204Z" fill="#F45624"/>
<path d="M128.675 24.1476H125.297V0.853516H137.107C139.646 0.853516 140.881 2.94999 140.881 4.8601C140.881 10.474 133.17 10.7069 133.17 12.1279C133.17 13.7352 140.228 24.0079 141.906 24.0079V24.1476H138.062C136.688 24.1476 136.618 23.9613 135.407 22.3773C133.45 19.8149 130.468 15.2027 130.468 13.7119C130.468 11.4523 137.503 11.1728 137.503 5.06975C137.503 2.8801 136.408 1.20293 133.659 1.20293H128.675V24.1476Z" fill="#F45624"/>
<path d="M115.482 24.3801C108.82 24.3801 105.512 18.5799 105.512 12.1274C105.512 5.442 109.426 0.620117 116.041 0.620117C118.441 0.620117 120.933 1.64506 121.795 2.97282L119.512 5.69823C117.672 3.53188 115.016 2.06435 112.384 2.06435C109.193 2.06435 108.284 4.76647 108.284 9.23894C108.284 16.0175 113.199 23.9375 117.136 23.9375C117.718 23.9375 118.604 23.6813 118.604 23.2154V11.6382H122.028V22.4001C120.56 23.7046 119.139 24.3801 115.482 24.3801Z" fill="#F45624"/>
<path d="M78.3283 16.3204C78.3283 13.362 80.7742 11.8945 83.9422 11.8945C87.0403 11.8945 88.8107 13.5251 90.977 13.5251C91.5128 13.5251 92.002 13.3154 92.002 12.7796C92.002 11.4053 88.0187 10.6832 85.5262 10.0775C82.2417 9.28553 78.8874 8.65659 78.8874 5.20906C78.8874 3.78812 80.1918 0.620117 86.9005 0.620117C89.2998 0.620117 93.3064 1.01612 94.7507 2.18082L93.7956 5.67494C92.4445 4.69659 89.3464 3.90459 86.3648 3.90459C82.9638 3.90459 81.5196 4.71988 81.5196 6.35047C81.5196 10.7764 93.7024 9.16906 93.7024 13.8046C93.7024 15.5516 92.2349 16.6465 90.6043 16.6931C87.1568 16.8095 84.8041 14.5733 81.7525 14.5733C79.6561 14.5733 78.7476 15.2954 78.7476 16.5067C78.7476 19.9309 83.8024 21.0025 89.0203 21.0025C90.977 21.0025 92.9337 20.8394 94.5177 19.5116L93.1201 23.5648C91.8855 24.1472 90.6975 24.3801 89.1135 24.3801C83.4996 24.3801 78.3283 22.2604 78.3283 16.3204Z" fill="#F45624"/>
<path d="M63.4446 24.1476V0.853516H66.8223V23.7982C70.8988 23.7749 75.8371 21.958 77.4211 20.3274V24.1476H63.4446Z" fill="#F45624"/>
<path d="M51.6783 24.3801C46.1343 24.3801 42.4772 19.6281 42.4772 12.5001C42.4772 5.37212 46.1343 0.620117 51.6783 0.620117C57.1991 0.620117 60.8795 5.37212 60.8795 12.5001C60.8795 19.6281 57.1991 24.3801 51.6783 24.3801ZM46.1111 12.4768C46.1111 19.4185 48.324 24.0307 51.6551 24.0307C55.0094 24.0307 57.2456 19.4185 57.2456 12.4768C57.2456 5.55847 55.0094 0.946233 51.6551 0.946233C48.324 0.946233 46.1111 5.55847 46.1111 12.4768Z" fill="#F45624"/>
<path d="M35.4276 24.3801C28.9518 24.3801 25.6208 18.6032 25.6208 12.1973C25.6208 5.55847 29.6274 0.620117 36.2429 0.620117C38.6422 0.620117 41.0415 1.78482 41.9034 3.08929L39.6206 5.8147C37.7803 3.64835 35.1248 2.20412 32.4926 2.20412C29.3013 2.20412 27.461 5.37212 27.461 9.82129C27.461 15.738 30.3262 20.9326 35.6373 20.9326C39.574 20.9326 40.7154 18.5799 40.7154 18.5799L42.5789 21.5615C42.5789 21.5615 40.2961 24.3801 35.4276 24.3801Z" fill="#F45624"/>
<path d="M19.6772 24.1476V0.853516H23.0548V24.1476H19.6772Z" fill="#F45624"/>
<path d="M0 24.1472V0.853058C0.256235 0.713292 0.722118 0.620117 1.04824 0.620117C4.51906 0.620117 5.07812 4.39376 9.45741 12.5001C11.7868 16.8095 13.3242 19.0691 14.3259 20.1639C15.5838 21.5149 16.0031 21.0258 16.0031 21.0258C16.0031 12.3138 14.5355 6.16412 11.5772 0.853058H16.4224V24.1472C16.1661 24.2869 15.7002 24.3801 15.3741 24.3801C12.5089 24.3801 9.41082 19.6514 6.54565 14.2006C4.30941 9.93776 2.98165 7.16576 2.30612 5.86129C1.00165 3.36882 0.419294 3.78812 0.419294 3.78812C0.419294 12.6865 1.88682 18.8361 4.84518 24.1472H0Z" fill="#F45624"/>
</svg>
