<svg width="22" height="22" viewBox="0 0 22 22" fill="none" xmlns="http://www.w3.org/2000/svg">
<path d="M6.8006 18.4252V8.4051H3.50337V18.4252H6.8006ZM5.15287 7.0375C6.30239 7.0375 7.01829 6.26789 7.01829 5.3061C6.99705 4.32286 6.30239 3.57471 5.17499 3.57471C4.04671 3.57471 3.30957 4.32286 3.30957 5.3061C3.30957 6.26789 4.02459 7.0375 5.13163 7.0375H5.15287ZM8.62532 18.4252H11.9225V12.8297C11.9225 12.5302 11.9438 12.2308 12.0314 12.0172C12.2694 11.4183 12.8119 10.7988 13.7234 10.7988C14.9163 10.7988 15.3932 11.7177 15.3932 13.0648V18.4243H18.6905V12.6795C18.6905 9.60197 17.064 8.17002 14.895 8.17002C13.1163 8.17002 12.3579 9.17382 11.9234 9.85762V8.4051H8.62532C8.66868 9.34544 8.62532 18.4252 8.62532 18.4252Z" fill="white"/>
</svg>
