<svg width="130" height="18" viewBox="0 0 130 18" fill="none" xmlns="http://www.w3.org/2000/svg">
<path d="M8.09748 1.89137C8.45972 1.13224 9.54028 1.13224 9.90251 1.89137L11.3584 4.9424C11.5042 5.24791 11.7946 5.45893 12.1302 5.50317L15.4818 5.94497C16.3157 6.05489 16.6496 7.08257 16.0396 7.66165L13.5878 9.9891C13.3423 10.2222 13.2313 10.5636 13.293 10.8964L13.9085 14.2205C14.0616 15.0476 13.1875 15.6827 12.4482 15.2815L9.47702 13.6689C9.1795 13.5074 8.8205 13.5074 8.52298 13.6689L5.5518 15.2815C4.81255 15.6827 3.93835 15.0476 4.0915 14.2205L4.70702 10.8964C4.76865 10.5636 4.65772 10.2222 4.41221 9.9891L1.9604 7.66165C1.35036 7.08257 1.68428 6.05489 2.51818 5.94497L5.86978 5.50317C6.20538 5.45893 6.49582 5.24791 6.6416 4.9424L8.09748 1.89137Z" fill="#7669E9"/>
<path d="M36.0975 1.89137C36.4597 1.13224 37.5403 1.13224 37.9025 1.89137L39.3584 4.9424C39.5042 5.24791 39.7946 5.45893 40.1302 5.50317L43.4818 5.94497C44.3157 6.05489 44.6496 7.08257 44.0396 7.66165L41.5878 9.9891C41.3423 10.2222 41.2313 10.5636 41.293 10.8964L41.9085 14.2205C42.0616 15.0476 41.1875 15.6827 40.4482 15.2815L37.477 13.6689C37.1795 13.5074 36.8205 13.5074 36.523 13.6689L33.5518 15.2815C32.8125 15.6827 31.9384 15.0476 32.0915 14.2205L32.707 10.8964C32.7687 10.5636 32.6577 10.2222 32.4122 9.9891L29.9604 7.66165C29.3504 7.08257 29.6843 6.05489 30.5182 5.94497L33.8698 5.50317C34.2054 5.45893 34.4958 5.24791 34.6416 4.9424L36.0975 1.89137Z" fill="#7669E9"/>
<path d="M64.0975 1.89137C64.4597 1.13224 65.5403 1.13224 65.9025 1.89137L67.3584 4.9424C67.5042 5.24791 67.7946 5.45893 68.1302 5.50317L71.4818 5.94497C72.3157 6.05489 72.6496 7.08257 72.0396 7.66165L69.5878 9.9891C69.3423 10.2222 69.2313 10.5636 69.293 10.8964L69.9085 14.2205C70.0616 15.0476 69.1875 15.6827 68.4482 15.2815L65.477 13.6689C65.1795 13.5074 64.8205 13.5074 64.523 13.6689L61.5518 15.2815C60.8125 15.6827 59.9384 15.0476 60.0915 14.2205L60.707 10.8964C60.7687 10.5636 60.6577 10.2222 60.4122 9.9891L57.9604 7.66165C57.3504 7.08257 57.6843 6.05489 58.5182 5.94497L61.8698 5.50317C62.2054 5.45893 62.4958 5.24791 62.6416 4.9424L64.0975 1.89137Z" fill="#7669E9"/>
<path d="M92.0975 1.89137C92.4597 1.13224 93.5403 1.13224 93.9025 1.89137L95.3584 4.9424C95.5042 5.24791 95.7946 5.45893 96.1302 5.50317L99.4818 5.94497C100.316 6.05489 100.65 7.08257 100.04 7.66165L97.5878 9.9891C97.3423 10.2222 97.2313 10.5636 97.293 10.8964L97.9085 14.2205C98.0616 15.0476 97.1875 15.6827 96.4482 15.2815L93.477 13.6689C93.1795 13.5074 92.8205 13.5074 92.523 13.6689L89.5518 15.2815C88.8125 15.6827 87.9384 15.0476 88.0915 14.2205L88.707 10.8964C88.7687 10.5636 88.6577 10.2222 88.4122 9.9891L85.9604 7.66165C85.3504 7.08257 85.6843 6.05489 86.5182 5.94497L89.8698 5.50317C90.2054 5.45893 90.4958 5.24791 90.6416 4.9424L92.0975 1.89137Z" fill="#7669E9"/>
<path d="M120.097 1.89137C120.46 1.13224 121.54 1.13224 121.903 1.89137L123.358 4.9424C123.504 5.24791 123.795 5.45893 124.13 5.50317L127.482 5.94497C128.316 6.05489 128.65 7.08257 128.04 7.66165L125.588 9.9891C125.342 10.2222 125.231 10.5636 125.293 10.8964L125.908 14.2205C126.062 15.0476 125.187 15.6827 124.448 15.2815L121.477 13.6689C121.18 13.5074 120.82 13.5074 120.523 13.6689L117.552 15.2815C116.813 15.6827 115.938 15.0476 116.092 14.2205L116.707 10.8964C116.769 10.5636 116.658 10.2222 116.412 9.9891L113.96 7.66165C113.35 7.08257 113.684 6.05489 114.518 5.94497L117.87 5.50317C118.205 5.45893 118.496 5.24791 118.642 4.9424L120.097 1.89137Z" fill="#7669E9"/>
</svg>
